<svg xmlns="http://www.w3.org/2000/svg" width="52" height="52" viewBox="0 0 52 52">
    <g>
        <path fill="none" d="M0 0H52V52H0z" transform="translate(-875 -1036) translate(875 1036)"/>
        <path fill="#666" d="M277.732 2297.732a9.326 9.326 0 0 1 13.19 0l12.834 12.833a9.327 9.327 0 1 1-13.19 13.19l-6.434-6.433a1.23 1.23 0 0 1 0-1.74L294.714 2305l-5.531-5.531a6.867 6.867 0 0 0-9.714 9.709l2.144 2.131c-.019.042-1.706 1.745-1.734 1.744l-2.146-2.134a9.326 9.326 0 0 1 0-13.19zm9.01 18.721l5.564 5.564a6.867 6.867 0 1 0 9.712-9.711l-5.564-5.563z" transform="translate(-875 -1036) translate(610.256 -1249)"/>
    </g>
</svg>
