<svg xmlns="http://www.w3.org/2000/svg" width="32" height="32" viewBox="0 0 32 32"><defs><style>.a,.b,.c{fill:none;}.c{stroke:#222;stroke-linecap:round;stroke-width:2px;}.d,.e{stroke:none;}.e{fill:#222;}</style></defs><g transform="translate(-1686 -24)"><rect class="a" width="32" height="32" transform="translate(1686 24)"/><g transform="translate(-21 8)"><g class="b" transform="translate(1711 21)"><path class="d" d="M9.5,0A9.5,9.5,0,1,1,0,9.5,9.5,9.5,0,0,1,9.5,0Z"/><path class="e" d="M 9.5 2 C 5.364489555358887 2 2 5.364489555358887 2 9.5 C 2 13.6355094909668 5.364489555358887 17 9.5 17 C 13.6355094909668 17 17 13.6355094909668 17 9.5 C 17 5.364489555358887 13.6355094909668 2 9.5 2 M 9.5 0 C 14.74670028686523 0 19 4.253299713134766 19 9.5 C 19 14.74670028686523 14.74670028686523 19 9.5 19 C 4.253299713134766 19 0 14.74670028686523 0 9.5 C 0 4.253299713134766 4.253299713134766 0 9.5 0 Z"/></g><line class="c" x2="4.438" y2="3.5" transform="translate(1730.5 38.5)"/></g></g></svg>