<svg xmlns="http://www.w3.org/2000/svg" width="52" height="52" viewBox="0 0 52 52">
  <defs>
    <style>
      .cls-1 {
        fill: none;
      }

      .cls-2 {
        fill: #666;
      }
    </style>
  </defs>
  <g id="그룹_9488" data-name="그룹 9488" transform="translate(-994 -1036)">
    <rect id="사각형_2621" data-name="사각형 2621" class="cls-1" width="52" height="52" transform="translate(994 1036)"/>
    <g id="그룹_9461" data-name="그룹 9461" transform="translate(714.443 -1286)">
      <path id="패스_2972" data-name="패스 2972" class="cls-2" d="M319.454,2345.6a5.24,5.24,0,0,0-4.272-5.143,5.24,5.24,0,0,0-5.143-4.273,3.142,3.142,0,0,1-3.138-3.138V2332h-1.046a5.24,5.24,0,0,0-5.143,4.272,5.247,5.247,0,0,0-4.185,4.185,5.24,5.24,0,0,0-4.273,5.143v1.046H288v5.59a15.345,15.345,0,0,0,4.8,11.149h26.114a15.422,15.422,0,0,0,4.8-11.149v-5.59h-4.254Zm-25.108,0a3.142,3.142,0,0,1,3.138-3.138h11.508v-2.092H298.711a3.143,3.143,0,0,1,2.959-2.093h1.046v-1.046a3.145,3.145,0,0,1,2.227-3,5.24,5.24,0,0,0,5.1,4.05,3.142,3.142,0,0,1,3.138,3.139v1.046h1.046a3.142,3.142,0,0,1,3.138,3.138v1.046H294.347Zm27.27,6.636a13.148,13.148,0,0,1-3.581,9.056H293.674a13.148,13.148,0,0,1-3.581-9.056v-3.5h31.524Zm0,0"/>
    </g>
  </g>
</svg>
